<svg xmlns="http://www.w3.org/2000/svg" version="1.1" xmlns:xlink="http://www.w3.org/1999/xlink" xmlns:svgjs="http://svgjs.dev/svgjs" width="1500" height="1500" viewBox="0 0 1500 1500"><rect width="1500" height="1500" fill="#ffffff"></rect><g transform="matrix(0.6666666666666666,0,0,0.6666666666666666,249.39393939393938,443.6486148101775)"><svg viewBox="0 0 396 243" data-background-color="#ffffff" preserveAspectRatio="xMidYMid meet" height="920" width="1500" xmlns="http://www.w3.org/2000/svg" xmlns:xlink="http://www.w3.org/1999/xlink"><g id="tight-bounds" transform="matrix(1,0,0,1,0.2400000000000091,-0.1249131503366101)"><svg viewBox="0 0 395.52 243.24982630067322" height="243.24982630067322" width="395.52"><g><svg viewBox="0 0 395.52 243.24982630067322" height="243.24982630067322" width="395.52"><g transform="matrix(1,0,0,1,0,150.33815135285917)"><svg viewBox="0 0 395.52 92.91167494781405" height="92.91167494781405" width="395.52"><g id="textblocktransform"><svg viewBox="0 0 395.52 92.91167494781405" height="92.91167494781405" width="395.52" id="textblock"><g><svg viewBox="0 0 395.52 92.91167494781405" height="92.91167494781405" width="395.52"><g transform="matrix(1,0,0,1,0,0)"><svg width="395.52" viewBox="2.127906976744186 -37 200.05209302325582 47" height="92.91167494781405" data-palette-color="#336a86"><path d="M2.5-4.05L2.5-4.05Q2.1-4.65 2.13-5.23 2.15-5.8 2.75-6.15L2.75-6.15Q3.15-6.5 3.68-6.45 4.2-6.4 4.65-5.95L4.65-5.95Q6-4.2 7.93-3.13 9.85-2.05 12.5-2.05L12.5-2.05Q13.9-2.05 15.28-2.53 16.65-3 17.55-3.98 18.45-4.95 18.45-6.45L18.45-6.45Q18.45-8 17.55-8.95 16.65-9.9 15.23-10.45 13.8-11 12.2-11.4L12.2-11.4Q10.5-11.85 8.9-12.43 7.3-13 6.08-13.88 4.85-14.75 4.1-16 3.35-17.25 3.35-19.05L3.35-19.05Q3.35-21.15 4.5-22.75 5.65-24.35 7.63-25.25 9.6-26.15 12.1-26.15L12.1-26.15Q13.35-26.15 14.8-25.83 16.25-25.5 17.65-24.75 19.05-24 20.15-22.7L20.15-22.7Q20.6-22.25 20.6-21.68 20.6-21.1 20.1-20.65L20.1-20.65Q19.7-20.35 19.18-20.35 18.65-20.35 18.3-20.75L18.3-20.75Q17.1-22.1 15.45-22.8 13.8-23.5 11.9-23.5L11.9-23.5Q10.45-23.5 9.18-23.03 7.9-22.55 7.05-21.6 6.2-20.65 6.2-19.1L6.2-19.1Q6.3-17.65 7.23-16.75 8.15-15.85 9.68-15.25 11.2-14.65 13.1-14.15L13.1-14.15Q14.7-13.75 16.18-13.2 17.65-12.65 18.78-11.83 19.9-11 20.58-9.75 21.25-8.5 21.25-6.6L21.25-6.6Q21.25-4.4 20.03-2.8 18.8-1.2 16.75-0.35 14.7 0.5 12.2 0.5L12.2 0.5Q9.5 0.5 6.98-0.55 4.45-1.6 2.5-4.05ZM29.2 0L29.2 0Q28.55 0 28.12-0.45 27.7-0.9 27.7-1.5L27.7-1.5 27.7-35.5Q27.7-36.1 28.12-36.55 28.55-37 29.2-37L29.2-37Q29.85-37 30.27-36.55 30.7-36.1 30.7-35.5L30.7-35.5 30.7-1.5Q30.7-0.9 30.27-0.45 29.85 0 29.2 0ZM46.2-25.65L46.2-25.65Q46.75-25.65 47.2-25.18 47.65-24.7 47.65-24.15L47.65-24.15Q47.65-23.5 47.1-23L47.1-23 30.3-8.7 30.15-12.25 45.15-25.15Q45.6-25.65 46.2-25.65ZM46.6 0L46.6 0Q45.95 0 45.5-0.55L45.5-0.55 34.1-12.65 36.35-14.7 47.65-2.65Q48.1-2.15 48.1-1.5L48.1-1.5Q48.1-0.8 47.55-0.4 47 0 46.6 0ZM57.05-24.5L57.05-1.5Q57.05-0.9 56.6-0.45 56.15 0 55.55 0L55.55 0Q54.9 0 54.47-0.45 54.05-0.9 54.05-1.5L54.05-1.5 54.05-24.5Q54.05-25.1 54.47-25.55 54.9-26 55.55-26L55.55-26Q56.2-26 56.62-25.55 57.05-25.1 57.05-24.5L57.05-24.5ZM55.55-29.35L55.55-29.35Q54.5-29.35 53.97-29.83 53.45-30.3 53.45-31.2L53.45-31.2 53.45-31.7Q53.45-32.6 54.02-33.08 54.6-33.55 55.6-33.55L55.6-33.55Q56.55-33.55 57.07-33.08 57.6-32.6 57.6-31.7L57.6-31.7 57.6-31.2Q57.6-30.3 57.07-29.83 56.55-29.35 55.55-29.35ZM68.14-35.5L68.14-1.5Q68.14-0.9 67.69-0.45 67.24 0 66.64 0L66.64 0Q65.99 0 65.57-0.45 65.14-0.9 65.14-1.5L65.14-1.5 65.14-35.5Q65.14-36.1 65.59-36.55 66.04-37 66.64-37L66.64-37Q67.29-37 67.72-36.55 68.14-36.1 68.14-35.5L68.14-35.5ZM79.64-35.5L79.64-1.5Q79.64-0.9 79.19-0.45 78.74 0 78.14 0L78.14 0Q77.49 0 77.07-0.45 76.64-0.9 76.64-1.5L76.64-1.5 76.64-35.5Q76.64-36.1 77.09-36.55 77.54-37 78.14-37L78.14-37Q78.79-37 79.22-36.55 79.64-36.1 79.64-35.5L79.64-35.5ZM100.04-4.05L100.04-4.05Q99.64-4.65 99.66-5.23 99.69-5.8 100.29-6.15L100.29-6.15Q100.69-6.5 101.21-6.45 101.74-6.4 102.19-5.95L102.19-5.95Q103.54-4.2 105.46-3.13 107.39-2.05 110.04-2.05L110.04-2.05Q111.44-2.05 112.81-2.53 114.19-3 115.09-3.98 115.99-4.95 115.99-6.45L115.99-6.45Q115.99-8 115.09-8.95 114.19-9.9 112.76-10.45 111.34-11 109.74-11.4L109.74-11.4Q108.04-11.85 106.44-12.43 104.84-13 103.61-13.88 102.39-14.75 101.64-16 100.89-17.25 100.89-19.05L100.89-19.05Q100.89-21.15 102.04-22.75 103.19-24.35 105.16-25.25 107.14-26.15 109.64-26.15L109.64-26.15Q110.89-26.15 112.34-25.83 113.79-25.5 115.19-24.75 116.59-24 117.69-22.7L117.69-22.7Q118.14-22.25 118.14-21.68 118.14-21.1 117.64-20.65L117.64-20.65Q117.24-20.35 116.71-20.35 116.19-20.35 115.84-20.75L115.84-20.75Q114.64-22.1 112.99-22.8 111.34-23.5 109.44-23.5L109.44-23.5Q107.99-23.5 106.71-23.03 105.44-22.55 104.59-21.6 103.74-20.65 103.74-19.1L103.74-19.1Q103.84-17.65 104.76-16.75 105.69-15.85 107.21-15.25 108.74-14.65 110.64-14.15L110.64-14.15Q112.24-13.75 113.71-13.2 115.19-12.65 116.31-11.83 117.44-11 118.11-9.75 118.79-8.5 118.79-6.6L118.79-6.6Q118.79-4.4 117.56-2.8 116.34-1.2 114.29-0.35 112.24 0.5 109.74 0.5L109.74 0.5Q107.04 0.5 104.51-0.55 101.99-1.6 100.04-4.05ZM143.98-26L143.98-26Q144.63-26 145.06-25.55 145.48-25.1 145.48-24.5L145.48-24.5 145.48-2.45Q145.48 1.6 143.88 4.38 142.28 7.15 139.58 8.58 136.88 10 133.43 10L133.43 10Q131.28 10 129.46 9.53 127.63 9.05 126.48 8.3L126.48 8.3Q125.88 7.95 125.58 7.45 125.28 6.95 125.53 6.4L125.53 6.4Q125.78 5.7 126.31 5.48 126.83 5.25 127.38 5.5L127.38 5.5Q128.23 5.95 129.83 6.6 131.43 7.25 133.48 7.25L133.48 7.25Q136.23 7.25 138.26 6.1 140.28 4.95 141.38 2.78 142.48 0.6 142.48-2.4L142.48-2.4 142.48-6 142.83-4.8Q142.08-3.25 140.71-2.05 139.33-0.85 137.56-0.18 135.78 0.5 133.78 0.5L133.78 0.5Q130.78 0.5 128.81-0.73 126.83-1.95 125.88-4.1 124.93-6.25 124.93-9.15L124.93-9.15 124.93-24.5Q124.93-25.1 125.33-25.55 125.73-26 126.43-26L126.43-26Q127.08-26 127.51-25.55 127.93-25.1 127.93-24.5L127.93-24.5 127.93-9.6Q127.93-6.1 129.46-4.2 130.98-2.3 134.43-2.3L134.43-2.3Q136.58-2.3 138.38-3.33 140.18-4.35 141.33-6.03 142.48-7.7 142.48-9.6L142.48-9.6 142.48-24.5Q142.48-25.1 142.91-25.55 143.33-26 143.98-26ZM165.38-26.15L165.38-26.15Q168.68-26.15 170.66-24.83 172.63-23.5 173.51-21.23 174.38-18.95 174.38-16.2L174.38-16.2 174.38-1.5Q174.38-0.9 173.93-0.45 173.48 0 172.88 0L172.88 0Q172.18 0 171.78-0.45 171.38-0.9 171.38-1.5L171.38-1.5 171.38-16.05Q171.38-18.05 170.73-19.7 170.08-21.35 168.61-22.35 167.13-23.35 164.73-23.35L164.73-23.35Q162.58-23.35 160.66-22.35 158.73-21.35 157.53-19.7 156.33-18.05 156.33-16.05L156.33-16.05 156.33-1.5Q156.33-0.9 155.88-0.45 155.43 0 154.83 0L154.83 0Q154.13 0 153.73-0.45 153.33-0.9 153.33-1.5L153.33-1.5 153.33-23.9Q153.33-24.5 153.76-24.95 154.18-25.4 154.83-25.4L154.83-25.4Q155.48-25.4 155.91-24.95 156.33-24.5 156.33-23.9L156.33-23.9 156.33-19.7 155.18-17.9Q155.28-19.5 156.21-20.98 157.13-22.45 158.58-23.63 160.03-24.8 161.81-25.48 163.58-26.15 165.38-26.15ZM193.28-26.15L193.28-26.15Q195.68-26.15 197.68-25.63 199.68-25.1 200.9-24.2 202.13-23.3 202.13-22.25L202.13-22.25Q202.13-21.75 201.75-21.28 201.38-20.8 200.83-20.8L200.83-20.8Q200.18-20.8 199.8-21.1 199.43-21.4 199.08-21.8 198.73-22.2 198.03-22.55L198.03-22.55Q197.38-22.85 196.15-23.1 194.93-23.35 193.43-23.35L193.43-23.35Q190.63-23.35 188.38-21.95 186.13-20.55 184.83-18.18 183.53-15.8 183.53-12.85L183.53-12.85Q183.53-9.85 184.75-7.45 185.98-5.05 188.2-3.68 190.43-2.3 193.33-2.3L193.33-2.3Q195.33-2.3 196.45-2.65 197.58-3 198.33-3.45L198.33-3.45Q199.33-4 199.75-4.53 200.18-5.05 200.88-5.05L200.88-5.05Q201.48-5.05 201.83-4.67 202.18-4.3 202.18-3.7L202.18-3.7Q202.18-2.9 201-1.93 199.83-0.95 197.78-0.23 195.73 0.5 193.03 0.5L193.03 0.5Q189.33 0.5 186.5-1.25 183.68-3 182.1-6.03 180.53-9.05 180.53-12.85L180.53-12.85Q180.53-16.5 182.13-19.5 183.73-22.5 186.58-24.33 189.43-26.15 193.28-26.15Z" opacity="1" transform="matrix(1,0,0,1,0,0)" fill="#000000" class="wordmark-text-0" data-fill-palette-color="primary" id="text-0"></path></svg></g></svg></g></svg></g></svg></g><g transform="matrix(1,0,0,1,133.5580326110605,0)"><svg viewBox="0 0 128.403934777879 128.40393477787902" height="128.40393477787902" width="128.403934777879"><g><svg></svg></g><g id="icon-0"><svg viewBox="0 0 128.403934777879 128.40393477787902" height="128.40393477787902" width="128.403934777879"><g><path transform="scale(1.28404,1.28404)" d="M30 100c-16.569 0-30-13.431-30-30v-40c0-16.569 13.431-30 30-30h40c16.569 0 30 13.431 30 30v40c0 16.569-13.431 30-30 30z" fill="#000000" fill-rule="nonzero" stroke="none" stroke-width="1" stroke-linecap="butt" stroke-linejoin="miter" stroke-miterlimit="10" stroke-dasharray="" stroke-dashoffset="0" font-family="none" font-weight="none" font-size="none" text-anchor="none" style="mix-blend-mode: normal" data-fill-palette-color="accent"></path></g><g transform="matrix(1,0,0,1,25.68078695557579,30.410653514914024)"><svg viewBox="0 0 77.0423608667274 67.58262774805097" height="67.58262774805097" width="77.0423608667274"><g><svg xmlns="http://www.w3.org/2000/svg" xmlns:xlink="http://www.w3.org/1999/xlink" version="1.1" x="0" y="0" viewBox="4.75 10.169 86.5 75.87899999999999" enable-background="new 0 0 96 96" xml:space="preserve" height="67.58262774805097" width="77.0423608667274" class="icon-cg-0" data-fill-palette-color="quaternary" id="cg-0"><polygon points="6.031,38.033 19.963,24.101 6.031,10.169 4.97,11.23 17.842,24.101 4.97,36.973 " fill="#ffffff" data-fill-palette-color="quaternary"></polygon><rect x="27.419" y="16.534" width="12.033" height="1.5" fill="#ffffff" data-fill-palette-color="quaternary"></rect><rect x="46.94" y="16.534" width="17.917" height="1.5" fill="#ffffff" data-fill-palette-color="quaternary"></rect><rect x="74.524" y="16.534" width="3.155" height="1.5" fill="#ffffff" data-fill-palette-color="quaternary"></rect><rect x="86.599" y="16.534" width="3.902" height="1.5" fill="#ffffff" data-fill-palette-color="quaternary"></rect><rect x="78.468" y="23.351" width="12.032" height="1.5" fill="#ffffff" data-fill-palette-color="quaternary"></rect><rect x="27.419" y="23.351" width="3.902" height="1.5" fill="#ffffff" data-fill-palette-color="quaternary"></rect><rect x="74.524" y="30.168" width="3.155" height="1.5" fill="#ffffff" data-fill-palette-color="quaternary"></rect><rect x="86.599" y="30.168" width="3.902" height="1.5" fill="#ffffff" data-fill-palette-color="quaternary"></rect><rect x="5.5" y="44.058" width="16.213" height="1.5" fill="#ffffff" data-fill-palette-color="quaternary"></rect><rect x="68.973" y="44.058" width="4.251" height="1.5" fill="#ffffff" data-fill-palette-color="quaternary"></rect><rect x="85.243" y="44.058" width="5.258" height="1.5" fill="#ffffff" data-fill-palette-color="quaternary"></rect><rect x="74.287" y="53.244" width="16.213" height="1.5" fill="#ffffff" data-fill-palette-color="quaternary"></rect><rect x="22.776" y="53.244" width="4.252" height="1.5" fill="#ffffff" data-fill-palette-color="quaternary"></rect><rect x="5.5" y="53.244" width="5.258" height="1.5" fill="#ffffff" data-fill-palette-color="quaternary"></rect><rect x="85.243" y="62.43" width="5.258" height="1.5" fill="#ffffff" data-fill-palette-color="quaternary"></rect><path d="M76.094 61.324c0-3.973-6.056-6.455-11.898-7.927v-0.153h-0.617c-4.032-0.971-7.856-1.466-9.387-1.64l-1.664-5.265c0.625-0.22 1.233-0.477 1.813-0.781h1.605v-0.991c3.491-2.491 5.779-6.564 5.779-11.169 0-0.587-0.049-1.162-0.121-1.729h3.252v-1.5h-3.531c-0.479-1.972-1.376-3.779-2.605-5.317h12.257v-1.5H57.321C54.87 21.076 51.6 19.672 48 19.672c-6.454 0-11.868 4.484-13.326 10.496h-7.255v1.5h6.977c-0.072 0.568-0.121 1.143-0.121 1.729 0 4.301 1.992 8.142 5.098 10.66h-7.569v1.5h9.855c0.576 0.301 1.177 0.557 1.797 0.775l-1.665 5.271c-3.817 0.434-21.903 2.854-21.903 9.72 0 0.351-0.011 0.722-0.029 1.105H5.5v1.5h14.255c-0.534 5.949-2.533 14.19-3.084 16.389H4.75v5.731h86.5v-5.731H79.313C78.674 77.774 76.094 67.134 76.094 61.324zM64.88 80.319h-33.76V63.581c0-1.453 1.182-2.635 2.635-2.635h28.489c1.453 0 2.635 1.182 2.635 2.635V80.319z" fill="#ffffff" data-fill-palette-color="quaternary"></path></svg></g></svg></g></svg></g></svg></g><g></g></svg></g><defs></defs></svg><rect width="395.52" height="243.24982630067322" fill="none" stroke="none" visibility="hidden"></rect></g></svg></g></svg>